# xmcd CD database file
#
# Track frame offsets:
#	150
#	10061
#	32515
#	48823
#	62175
#	72630
#	85515
#	99027
#	108626
#	124645
#	134153
#	154595
#	172989
#	186115
#	194330
#	207230
#	221575
#	242523
#	249561
#	259177
#	268242
#	281517
#	296802
#
# Disc length: 4166 seconds
#
# Revision: 0
# Processed by: cddbd v1.5.2PL0 Copyright (c) Steve Scherf et al.
# Submitted via: CDex 1.70beta2
#
DISCID=51104417
DTITLE=TPR - Serious, Sad, Silly and Spiritual Songs - The Parlour Recordings - by David Simmonds
DYEAR=1900
DGENRE=Country
TTITLE0=Chipmunk Strut - John Hanson wt. Margaret C. Feuerstack
TTITLE1=Things A Man Can Do - Rich Hayes
TTITLE2=Someday - Micheal Munnik
TTITLE3=You Always - Alan Reid
TTITLE4=Best Before - Margaret Carrie-Feuerstack
TTITLE5=One Less At Home - Russ Mills
TTITLE6=Municipal Wisdom - Sjel Frenken
TTITLE7=Grace - Kyla Dowden
TTITLE8=Love And Friendship Faith And Trust - Bob Froesc wt. David Simmonds
TTITLE9=Lets Go For A Walk - Kim Lymburner
TTITLE10=Life Is Short And Art Is Long - Greg Kelly
TTITLE11=Une Berceuse - Missy Burgess
TTITLE12=Tell Me - Gospel Grass
TTITLE13=He Chooses His Instruments Well - RonMoores wt. Richard McCarthy
TTITLE14=Jerusalem - Joan Kolk
TTITLE15=Jimmy New Cadillac - Im
TTITLE16=Angry Love - John Casselman
TTITLE17=Canadian Gospel - Susan McCarthy
TTITLE18=The Most Of You And Me - Sjel Frenken
TTITLE19=If I Think OfYou At All - Bob Froese wt. David Simmons
TTITLE20=What Buddha Told Leonard Cohen - David Simmonds
TTITLE21=Epitaph - Tony Turner
TTITLE22=nfinite Moment In Time - Greg Kelly wt. Sjel Frenken and Rick Hayes
EXTD=
EXTT0=
EXTT1=
EXTT2=
EXTT3=
EXTT4=
EXTT5=
EXTT6=
EXTT7=
EXTT8=
EXTT9=
EXTT10=
EXTT11=
EXTT12=
EXTT13=
EXTT14=
EXTT15=
EXTT16=
EXTT17=
EXTT18=
EXTT19=
EXTT20=
EXTT21=
EXTT22=
PLAYORDER=
